<svg width="300" height="300" viewBox="0 0 300 300" fill="none" xmlns="http://www.w3.org/2000/svg">
<path d="M295 150C295 69.9187 230.081 5 150 5C69.9187 5 5 69.9187 5 150C5 230.081 69.9187 295 150 295C230.081 295 295 230.081 295 150Z" fill="white"/>
<mask id="mask0_786_3447" style="mask-type:alpha" maskUnits="userSpaceOnUse" x="5" y="5" width="290" height="290">
<path d="M295 150C295 69.9187 230.081 5 150 5C69.9187 5 5 69.9187 5 150C5 230.081 69.9187 295 150 295C230.081 295 295 230.081 295 150Z" fill="white"/>
</mask>
<g mask="url(#mask0_786_3447)">
<g filter="url(#filter0_ii_786_3447)">
<path d="M165.099 59.1529C149.981 64.9529 139.405 77.5003 135.442 92.0583C135.287 92.6383 134.63 92.9283 134.108 92.6383C100.777 74.349 61.608 68.8583 24.5073 77.4036C12.1147 98.7669 5 123.533 5 150C5 187.198 19.0167 221.089 42.0233 246.764C49.4667 245.12 56.8133 242.936 64.0247 240.171C74.1553 236.285 83.648 231.355 92.4447 225.516C126.375 203.012 147.506 164.945 145.244 125.002C145.186 123.997 146.655 123.804 146.829 124.79C148.917 136.699 150.058 157.83 141.3 185.709C135.229 205.004 123.513 225.806 118.545 238.276C112.281 253.956 125.466 270.37 141.977 267.702C149.961 266.406 156.477 260.568 159.164 252.95C169.082 224.994 182.113 174.708 178.633 154.524C178.555 154.022 178.923 153.616 179.425 153.654C186.289 154.118 193.326 153.19 200.151 150.561C219.871 142.982 222.771 127.052 224.685 116.515C226.502 106.481 227.43 101.416 237.599 97.4329C240.461 96.3116 242.993 94.3203 244.463 91.6136C247.498 86.0649 246.067 79.4916 241.563 75.6636C240.035 74.3683 203.882 44.247 165.099 59.1529ZM211.635 86.8189C210.958 88.8103 208.773 89.8736 206.763 89.1969C203.959 88.2303 202.258 89.1776 201.33 90.1249C200.189 91.3043 199.706 93.1023 200.189 94.3783C200.924 96.3503 199.938 98.5543 197.985 99.3083C197.985 99.3083 197.985 99.3083 197.966 99.3083C195.994 100.062 193.771 99.0569 193.036 97.0849C191.509 93.0443 192.63 88.0949 195.839 84.7889C199.242 81.2896 204.249 80.2263 209.257 81.9469C211.248 82.6429 212.311 84.8083 211.635 86.8189Z" fill="url(#paint0_linear_786_3447)"/>
</g>
<path d="M134.959 91.9294L134.96 91.9269C138.963 77.2229 149.645 64.546 164.92 58.6861C184.475 51.1706 203.349 55.0142 217.493 60.8708C231.637 66.7276 241.102 74.6177 241.886 75.2823L241.886 75.2826C246.567 79.2602 248.053 86.0916 244.901 91.8536C243.366 94.681 240.732 96.7424 237.782 97.8985L237.782 97.8985C232.764 99.8636 230.1 102.065 228.444 104.953C226.765 107.881 226.09 111.56 225.177 116.604L225.177 116.604L225.174 116.617C224.219 121.877 223.004 128.565 219.533 134.888C216.05 141.234 210.305 147.194 200.33 151.028C193.434 153.685 186.323 154.622 179.392 154.153L179.387 154.153C179.285 154.145 179.219 154.181 179.181 154.223C179.143 154.265 179.111 154.337 179.126 154.444C180.007 159.56 179.839 166.542 178.95 174.542C178.061 182.555 176.445 191.624 174.411 200.93C170.344 219.539 164.601 239.12 159.635 253.117C156.892 260.893 150.236 266.868 142.057 268.195L142.056 268.195C125.16 270.926 111.673 254.129 118.08 238.091C119.873 233.592 122.542 228.009 125.5 221.823C126.653 219.411 127.85 216.907 129.057 214.339C133.364 205.171 137.798 195.173 140.823 185.559C140.823 185.559 140.823 185.559 140.823 185.559L141.3 185.709C150.058 157.83 148.917 136.699 146.829 124.79L134.959 91.9294ZM134.959 91.9294C134.885 92.2057 134.578 92.3277 134.351 92.2012L134.349 92.1999M134.959 91.9294L134.349 92.1999M134.349 92.1999C100.911 73.8518 61.6158 68.3434 24.3951 76.9164L24.1837 76.9651M134.349 92.1999L24.1837 76.9651M24.1837 76.9651L24.0748 77.1527M24.1837 76.9651L24.0748 77.1527M24.0748 77.1527C11.6394 98.5898 4.5 123.442 4.5 150C4.5 187.326 18.5655 221.335 41.651 247.097L41.8459 247.315M24.0748 77.1527L41.8459 247.315M41.8459 247.315L42.1311 247.252M41.8459 247.315L42.1311 247.252M42.1311 247.252C49.598 245.603 56.9685 243.412 64.2037 240.638L64.0247 240.171L42.1311 247.252ZM200.971 89.7773L200.973 89.7751C201.485 89.2517 202.219 88.7218 203.216 88.4596C204.215 88.1969 205.442 88.2132 206.923 88.7234C208.677 89.3131 210.575 88.3832 211.161 86.6581C211.75 84.9076 210.824 83.0251 209.093 82.4193C204.25 80.7557 199.452 81.7913 196.198 85.1372L200.971 89.7773ZM200.971 89.7773C199.729 91.0606 199.154 93.0559 199.721 94.5543C200.35 96.2429 199.528 98.124 197.889 98.8083H197.874M200.971 89.7773L197.874 98.8083M197.874 98.8083L197.787 98.8413M197.874 98.8083L197.787 98.8413M197.787 98.8413C196.074 99.4962 194.142 98.6216 193.505 96.9104L193.504 96.9082M197.787 98.8413L193.504 96.9082M193.504 96.9082C192.05 93.0629 193.113 88.3154 196.198 85.1375L193.504 96.9082Z" stroke="url(#paint1_linear_786_3447)"/>
</g>
<defs>
<filter id="filter0_ii_786_3447" x="3" y="54.021" width="245.07" height="215.968" filterUnits="userSpaceOnUse" color-interpolation-filters="sRGB">
<feFlood flood-opacity="0" result="BackgroundImageFix"/>
<feBlend mode="normal" in="SourceGraphic" in2="BackgroundImageFix" result="shape"/>
<feColorMatrix in="SourceAlpha" type="matrix" values="0 0 0 0 0 0 0 0 0 0 0 0 0 0 0 0 0 0 127 0" result="hardAlpha"/>
<feOffset dx="-1" dy="2"/>
<feGaussianBlur stdDeviation="0.5"/>
<feComposite in2="hardAlpha" operator="arithmetic" k2="-1" k3="1"/>
<feColorMatrix type="matrix" values="0 0 0 0 0.8 0 0 0 0 0.886275 0 0 0 0 1 0 0 0 0.55 0"/>
<feBlend mode="normal" in2="shape" result="effect1_innerShadow_786_3447"/>
<feColorMatrix in="SourceAlpha" type="matrix" values="0 0 0 0 0 0 0 0 0 0 0 0 0 0 0 0 0 0 127 0" result="hardAlpha"/>
<feOffset dx="1"/>
<feGaussianBlur stdDeviation="1"/>
<feComposite in2="hardAlpha" operator="arithmetic" k2="-1" k3="1"/>
<feColorMatrix type="matrix" values="0 0 0 0 0.00392157 0 0 0 0 0.129412 0 0 0 0 0.411765 0 0 0 0.55 0"/>
<feBlend mode="normal" in2="effect1_innerShadow_786_3447" result="effect2_innerShadow_786_3447"/>
</filter>
<linearGradient id="paint0_linear_786_3447" x1="160.5" y1="147" x2="-72.5" y2="82" gradientUnits="userSpaceOnUse">
<stop stop-color="#006EFF"/>
<stop offset="1" stop-color="#006EFF" stop-opacity="0"/>
</linearGradient>
<linearGradient id="paint1_linear_786_3447" x1="39.5" y1="31" x2="183" y2="247" gradientUnits="userSpaceOnUse">
<stop stop-color="#006EFF"/>
<stop offset="1" stop-color="#006EFF" stop-opacity="0"/>
</linearGradient>
</defs>
</svg>
